<svg id="SvgjsSvg1001" width="288" height="288" xmlns="http://www.w3.org/2000/svg" version="1.1" xmlns:xlink="http://www.w3.org/1999/xlink" xmlns:svgjs="http://svgjs.com/svgjs"><defs id="SvgjsDefs1002"></defs><g id="SvgjsG1008"><svg xmlns="http://www.w3.org/2000/svg" fill="none" viewBox="0 0 48 48" width="288" height="288"><rect width="48" height="48" fill="#d93025" rx="24" class="colorD93025 svgShape"></rect><path fill="#ffffff" d="M37.4993 13.0011H10.5012L11.5012 34.7496H36.4993L37.4993 13.0011Z" opacity=".3" class="colorfff svgShape"></path><path fill="#ffffff" d="M37.4993 13.0011H10.5012L22.9375 22.2812H25.25L37.4993 13.0011Z" opacity=".3" class="colorfff svgShape"></path><path fill="#ffffff" d="M12.75 34.75L24 24.625L35.25 34.75H12.75Z" opacity=".1" class="colorfff svgShape"></path><path fill="#ffffff" fill-rule="evenodd" d="M12.751 14.8762C12.751 13.8413 11.9126 13.0013 10.8762 13.0013 9.84122 13.0013 9.00128 13.8413 9.00128 14.8762 9.00128 18.8689 9.00128 28.1967 9.00128 32.4999 9.00128 33.7434 10.0092 34.7498 11.2511 34.7498 12.0491 34.7498 12.751 34.7498 12.751 34.7498 12.751 34.7498 12.751 20.1543 12.751 14.8762zM35.2495 14.876C35.2495 13.841 36.0894 13.0011 37.1243 13.0011 37.1258 13.0011 37.1273 13.0011 37.1273 13.0011 38.1622 13.0011 38.9992 13.8395 38.9992 14.873 38.9992 18.8642 38.9992 28.195 38.9992 32.4997 38.9992 33.7431 37.9928 34.7496 36.7493 34.7496 35.9529 34.7496 35.2495 34.7496 35.2495 34.7496 35.2495 34.7496 35.2495 20.1541 35.2495 14.876z" clip-rule="evenodd" class="colorfff svgShape"></path><path fill="#ffffff" fill-rule="evenodd" d="M9.93699 16.4988C9.50652 16.2498 9.19304 15.8419 9.06405 15.3619C8.93506 14.8819 9.00256 14.372 9.25154 13.9415C9.25154 13.9415 9.25304 13.94 9.25304 13.9385C9.50202 13.508 9.91149 13.1945 10.3915 13.0656C10.8714 12.9366 11.3829 13.0041 11.8134 13.253L24 20.289L36.1896 13.2515C36.6201 13.0026 37.1301 12.9351 37.61 13.0641C38.09 13.193 38.498 13.5065 38.747 13.937L38.7485 13.9385C38.9974 14.369 39.0649 14.8819 38.9359 15.3619C38.807 15.8419 38.492 16.2513 38.0615 16.5003L27.7497 22.4534L24 24.6192L20.2503 22.4534L9.93699 16.4988Z" clip-rule="evenodd" class="colorfff svgShape"></path></svg></g></svg>